<svg width="31" height="29" viewBox="0 0 31 29" fill="none" xmlns="http://www.w3.org/2000/svg">
<path d="M29.9994 14.2222C29.9994 21.5247 24.0796 27.4444 16.7772 27.4444C15.1022 27.4444 13.4999 27.133 12.0252 26.5648C11.7556 26.461 11.6208 26.409 11.5135 26.3843C11.4081 26.36 11.3318 26.3498 11.2236 26.3457C11.1137 26.3415 10.9931 26.354 10.7518 26.3789L2.7858 27.2024C2.02631 27.2809 1.64657 27.3201 1.42256 27.1835C1.22745 27.0645 1.09456 26.8657 1.05919 26.6399C1.01858 26.3806 1.20004 26.0448 1.56297 25.373L4.10732 20.6635C4.31686 20.2756 4.42163 20.0817 4.46909 19.8953C4.51595 19.7111 4.52728 19.5783 4.51229 19.3889C4.49711 19.1971 4.41296 18.9474 4.24465 18.4481C3.79739 17.1211 3.55496 15.7 3.55496 14.2222C3.55496 6.91979 9.47475 1 16.7772 1C24.0796 1 29.9994 6.91979 29.9994 14.2222Z" stroke="#E9EDF0" stroke-width="2" stroke-linecap="round" stroke-linejoin="round"/>
</svg>
