<svg width="22" height="22" viewBox="0 0 22 22" fill="none" xmlns="http://www.w3.org/2000/svg">
<path d="M9.68787 10.9999H4.87537M4.8013 11.255L2.75824 17.3579C2.59774 17.8373 2.51749 18.077 2.57508 18.2247C2.62509 18.3529 2.73251 18.4501 2.86506 18.487C3.01769 18.5296 3.24822 18.4259 3.70929 18.2184L18.3318 11.6383C18.7819 11.4358 19.0069 11.3345 19.0764 11.1938C19.1369 11.0716 19.1369 10.9282 19.0764 10.806C19.0069 10.6654 18.7819 10.5641 18.3318 10.3616L3.70419 3.7792C3.24452 3.57234 3.01468 3.46892 2.8622 3.51134C2.72978 3.54819 2.62237 3.64513 2.57218 3.77309C2.51439 3.92044 2.59379 4.15964 2.75258 4.63805L4.80187 10.8123C4.82914 10.8944 4.84278 10.9355 4.84816 10.9775C4.85294 11.0148 4.85289 11.0526 4.84802 11.0899C4.84252 11.1319 4.82878 11.1729 4.8013 11.255Z" stroke="white" stroke-width="2" stroke-linecap="round" stroke-linejoin="round"/>
</svg>
